<?xml version="1.0" encoding="utf-8"?>
<!-- Generator: Adobe Illustrator 24.3.0, SVG Export Plug-In . SVG Version: 6.00 Build 0)  -->
<svg version="1.1" xmlns="http://www.w3.org/2000/svg" xmlns:xlink="http://www.w3.org/1999/xlink" x="0px" y="0px"
	 viewBox="0 0 242.7 191.6" style="enable-background:new 0 0 242.7 191.6;" xml:space="preserve">
<style type="text/css">
	.st0{fill:none;}
	.st1{fill:#EB5F9E;}
	.st2{fill:none;stroke:#FAD84A;stroke-width:1.1296;stroke-miterlimit:10;stroke-dasharray:3.8761,3.8761;}
	.st3{clip-path:url(#SVGID_2_);}
	.st4{fill:#6EC6D9;}
</style>
<g id="FONDO-PAGINA">
</g>
<g id="LLAMADO_A_LA_ACCIÓN">
</g>
<g id="FOOD">
</g>
<g id="CONTACTENOS">
</g>
<g id="PREGUNTAS_FRECUENTES">
</g>
<g id="OPINIONES">
</g>
<g id="Galeria">
</g>
<g id="HISTORIA_video">
</g>
<g id="PACKS">
</g>
<g id="MARCAS">
</g>
<g id="HOME">
	<g id="IMAGENES">
	</g>
	<g id="LLUVIA_DE_DULCES">
	</g>
	<g id="MARCA">
	</g>
</g>
<g id="CÓMO_FUNCIONA">
</g>
<g id="PAGINA_AUXILIAR">
	<rect class="st0" width="242.7" height="191.6"/>
	<g>
		<circle class="st1" cx="120.1" cy="95" r="71.6"/>
		
			<ellipse transform="matrix(0.7071 -0.7071 0.7071 0.7071 -31.9953 112.7261)" class="st2" cx="120.1" cy="95" rx="71.6" ry="71.6"/>
	</g>
	<g>
		<defs>
			<circle id="SVGID_1_" cx="120.1" cy="95" r="62"/>
		</defs>
		<clipPath id="SVGID_2_">
			<use xlink:href="#SVGID_1_"  style="overflow:visible;"/>
		</clipPath>
		<g class="st3">
			<g>
				
					<image style="overflow:visible;" width="978" height="651" xlink:href="60FBC179.jpg"  transform="matrix(0.1895 0 0 0.1895 0.4295 33.0275)">
				</image>
				<g>
					
						<image style="overflow:visible;opacity:0.49;" width="279" height="306" xlink:href="60FBC17F.png"  transform="matrix(0.24 0 0 0.24 106.4647 85.34)">
					</image>
					<g>
						<g>
							<defs>
								<path id="SVGID_36_" d="M166.2,148.3l-0.1-18l-2.7-1.7l2.6-3.4l0-16.9l-1.2-0.1l-0.2-17.2l-16.1-0.5c0,0-1,0.4-2.1,0.4
									c-1.1,0-1.4-0.5-1.4-0.5s-0.7,0.3-1.4,0.4c-0.1,0-1.4-0.1-1.5,0c-0.2,0.1-0.7,0.5-1.7,0.4c-1.3-0.1-1.5-0.9-1.5-0.9
									l-11.2-0.1l-14.3,1.6v16.5v1.7l6.9,0.2l-1.2,2l0.2,14.9l-1.9,0l0.3,16.9l6.9,7.1L166.2,148.3z"/>
							</defs>
							<clipPath id="SVGID_3_">
								<use xlink:href="#SVGID_36_"  style="overflow:visible;"/>
							</clipPath>
							<g transform="matrix(1 0 0 1 0 0)" style="clip-path:url(#SVGID_3_);">
								
									<image style="overflow:visible;" width="278" height="309" xlink:href="60FBC178.jpg"  transform="matrix(0.2094 0 0 0.2094 110.7243 88.2185)">
								</image>
							</g>
						</g>
					</g>
				</g>
				<g>
					
						<image style="overflow:visible;" width="317" height="78" xlink:href="60FBC17B.png"  transform="matrix(0.1034 0 0 0.1034 129.5202 135.9985)">
					</image>
				</g>
				
					<image style="overflow:visible;" width="317" height="62" xlink:href="60FBC178.png"  transform="matrix(9.779009e-02 3.153206e-03 -3.153206e-03 9.779009e-02 124.879 118.916)">
				</image>
				<g>
					
						<image style="overflow:visible;" width="325" height="98" xlink:href="60FBC187.png"  transform="matrix(8.637031e-02 0 0 8.637010e-02 117.254 97.5908)">
					</image>
				</g>
			</g>
		</g>
	</g>
	<circle class="st4" cx="177" cy="154.8" r="1.6"/>
	<circle class="st4" cx="95.4" cy="168.3" r="1.6"/>
	<circle class="st4" cx="172" cy="177.4" r="1.6"/>
	<circle class="st4" cx="111.6" cy="173.6" r="1.6"/>
	<circle class="st4" cx="111.6" cy="189" r="1.6"/>
	<circle class="st4" cx="155.6" cy="165.9" r="1.6"/>
	<circle class="st4" cx="190.6" cy="162.5" r="1.6"/>
	<circle class="st4" cx="202.6" cy="155.6" r="1.6"/>
	<circle class="st4" cx="138.7" cy="186.1" r="1.6"/>
	<circle class="st1" cx="51.4" cy="49.7" r="1.6"/>
	<circle class="st1" cx="82.7" cy="22.8" r="1.6"/>
	<circle class="st1" cx="65.9" cy="14.4" r="1.6"/>
	<circle class="st1" cx="143.2" cy="17.5" r="1.6"/>
	<circle class="st1" cx="127" cy="3.8" r="1.6"/>
	<circle class="st1" cx="156" cy="10.4" r="1.6"/>
	<circle class="st1" cx="177" cy="16.9" r="1.6"/>
	<circle class="st1" cx="163.5" cy="28.6" r="1.6"/>
	<circle class="st1" cx="175.4" cy="37.5" r="1.6"/>
	<circle class="st1" cx="40.8" cy="70.1" r="1.6"/>
	<circle class="st1" cx="46.3" cy="94.6" r="1.6"/>
	<circle class="st1" cx="64.3" cy="33" r="1.6"/>
	<circle class="st1" cx="27.4" cy="82.7" r="1.6"/>
	<circle class="st1" cx="44" cy="40.5" r="1.6"/>
	<circle class="st1" cx="111.6" cy="14.4" r="1.6"/>
	<circle class="st1" cx="100.8" cy="3.8" r="1.6"/>
	<circle class="st4" cx="32.3" cy="130.1" r="1.6"/>
	<circle class="st4" cx="53.9" cy="162.5" r="1.6"/>
	<circle class="st4" cx="53.2" cy="141.2" r="1.6"/>
	<circle class="st4" cx="46.3" cy="121.6" r="1.6"/>
	<circle class="st4" cx="30.3" cy="111.3" r="1.6"/>
	<circle class="st4" cx="69.4" cy="173.1" r="1.6"/>
	<circle class="st4" cx="67.7" cy="157.2" r="1.6"/>
	<circle class="st4" cx="92.9" cy="184.5" r="1.6"/>
	<circle class="st4" cx="25.8" cy="142.8" r="1.6"/>
	<circle class="st4" cx="212.7" cy="118.5" r="1.6"/>
	<circle class="st4" cx="193.2" cy="135.4" r="1.6"/>
	<circle class="st4" cx="197.7" cy="113.1" r="1.6"/>
	<circle class="st4" cx="202.6" cy="64" r="1.6"/>
	<circle class="st4" cx="200.8" cy="88.5" r="1.6"/>
	<circle class="st4" cx="191.6" cy="56.4" r="1.6"/>
	<circle class="st4" cx="216.5" cy="82.7" r="1.6"/>
	<circle class="st4" cx="208.4" cy="49.7" r="1.6"/>
	<circle class="st4" cx="198.4" cy="33" r="1.6"/>
</g>
</svg>
