<svg xmlns="http://www.w3.org/2000/svg" viewBox="0 0 16 16"><title>BUSCADOR</title><g id="HOME"><rect width="16" height="16" fill="none"/><circle cx="7.97" cy="8.03" r="7.55" fill="#e94d93" stroke="#f9b233" stroke-miterlimit="10" stroke-width="0.58"/><path d="M10.13,11.16a.75.75,0,0,1-.5-.18.68.68,0,0,1-.26-.52V6.22c0-.23-.1-.34-.3-.34a.72.72,0,0,0-.48.2,1,1,0,0,0-.34.75.46.46,0,0,1,.28-.21c.06,0,.06-.28.11-.28A.54.54,0,0,1,9,6.47a.48.48,0,0,1,.17.36A.83.83,0,0,1,9,7.35a.54.54,0,0,1-.35.11A.8.8,0,0,1,8,7a2.3,2.3,0,0,1-.23-.65,1.44,1.44,0,0,1,.53-1c.31-.24.77-.09,1.2-.09h2.83a1.19,1.19,0,0,1,.72.25,1.18,1.18,0,0,1,.49,1,1.16,1.16,0,0,1-.34.85,1.37,1.37,0,0,1-.63.33l.11,0A1.61,1.61,0,0,1,13.9,9.48a1.88,1.88,0,0,1-.47,1.26,1.26,1.26,0,0,1-.9.42Zm1.65-3.92a1.06,1.06,0,0,0,.27-.72c0-.44-.15-.7-.43-.76H10.9V7.43h.48A.63.63,0,0,0,11.78,7.24ZM12,10.5a1.36,1.36,0,0,0,.22-.42,2.51,2.51,0,0,0,.11-.72,2,2,0,0,0-.22-.94.86.86,0,0,0-.78-.55H10.9v2.86h.62A.62.62,0,0,0,12,10.5Z" fill="#f9b233"/><path d="M9.71,10.75a.81.81,0,0,1-.5-.18A.71.71,0,0,1,9,10.05V5.8c0-.22-.1-.34-.3-.34a.77.77,0,0,0-.48.2,1,1,0,0,0-.34.76.43.43,0,0,1,.28-.22l.17,0a.57.57,0,0,1,.35.12.48.48,0,0,1,.17.37A.46.46,0,0,1,8.62,7a.52.52,0,0,1-.35.11.76.76,0,0,1-.69-.43,1.13,1.13,0,0,1-.11-.48,1.25,1.25,0,0,1,.45-1A1.69,1.69,0,0,1,9,4.9h2.84a1.22,1.22,0,0,1,1.2,1.21,1.18,1.18,0,0,1-.34.85,1.47,1.47,0,0,1-.63.33l.12,0a1.62,1.62,0,0,1,1.26,1.75A1.92,1.92,0,0,1,13,10.33a1.26,1.26,0,0,1-.89.42Zm1.65-3.92a1.08,1.08,0,0,0,.27-.73c0-.44-.15-.69-.43-.76h-.71V7H11A.64.64,0,0,0,11.36,6.83Zm.26,3.25a1.36,1.36,0,0,0,.22-.42A2.46,2.46,0,0,0,12,8.94,2,2,0,0,0,11.73,8,.88.88,0,0,0,11,7.45h-.46v2.87h.61A.63.63,0,0,0,11.62,10.08Z" fill="#fff"/><path d="M4.7,11.13a1.93,1.93,0,0,1-1.34-.44A1.14,1.14,0,0,1,3,9.87a.91.91,0,0,1,.23-.63A.74.74,0,0,1,3.8,9a.79.79,0,0,1,.55.22.69.69,0,0,1,.21.5.74.74,0,0,1-.26.55.85.85,0,0,1-.52.19H3.72a1.15,1.15,0,0,0,.81.26,1,1,0,0,0,.76-.29.75.75,0,0,0,.18-.5,1.09,1.09,0,0,0-.4-.81,10.23,10.23,0,0,0-1-.7,4.75,4.75,0,0,1-.67-.57A1.55,1.55,0,0,1,3,6.76,1.31,1.31,0,0,1,4,5.51a3.58,3.58,0,0,1,1.3-.23,2,2,0,0,1,1.41.45A1.12,1.12,0,0,1,7,6.55a.93.93,0,0,1-.21.6.74.74,0,0,1-.59.28.77.77,0,0,1-.53-.21.66.66,0,0,1-.23-.52.68.68,0,0,1,.19-.48A.76.76,0,0,1,6.23,6H6.3a1.22,1.22,0,0,0-.82-.26.92.92,0,0,0-.82.38.72.72,0,0,0-.11.41A1.07,1.07,0,0,0,5,7.33a10.61,10.61,0,0,0,1,.71,3.21,3.21,0,0,1,.68.58,1.53,1.53,0,0,1,.42,1q0,1-1.14,1.32a3.71,3.71,0,0,1-1.1.16Z" fill="#f9b233"/><path d="M4.35,10.74A1.93,1.93,0,0,1,3,10.31a1.16,1.16,0,0,1-.36-.83.91.91,0,0,1,.23-.62.76.76,0,0,1,.57-.26A.8.8,0,0,1,4,8.82a.68.68,0,0,1,.21.5A.69.69,0,0,1,4,9.87a.75.75,0,0,1-.51.19H3.38a1.12,1.12,0,0,0,.8.27A1,1,0,0,0,4.94,10a.76.76,0,0,0,.19-.51,1.1,1.1,0,0,0-.41-.81c-.15-.13-.46-.37-.94-.7a3.77,3.77,0,0,1-.67-.57,1.5,1.5,0,0,1-.46-1.06,1.32,1.32,0,0,1,1-1.26A3.66,3.66,0,0,1,4.9,4.9a2,2,0,0,1,1.42.45,1.12,1.12,0,0,1,.36.81.91.91,0,0,1-.21.6.75.75,0,0,1-.6.28.83.83,0,0,1-.53-.2.71.71,0,0,1-.23-.52.73.73,0,0,1,.2-.49.74.74,0,0,1,.58-.25H6a1.13,1.13,0,0,0-.81-.27.94.94,0,0,0-.83.38.88.88,0,0,0-.11.42,1.09,1.09,0,0,0,.42.82,9.81,9.81,0,0,0,1,.71,3,3,0,0,1,.67.59,1.53,1.53,0,0,1,.43,1c0,.63-.39,1.07-1.15,1.32a4,4,0,0,1-1.09.15Z" fill="#fff"/></g></svg>