<?xml version="1.0" encoding="utf-8"?>
<!-- Generator: Adobe Illustrator 23.0.1, SVG Export Plug-In . SVG Version: 6.00 Build 0)  -->
<svg version="1.1" id="Layer_1" xmlns="http://www.w3.org/2000/svg" xmlns:xlink="http://www.w3.org/1999/xlink" x="0px" y="0px"
	 viewBox="0 0 1924.2 673.4" style="enable-background:new 0 0 1924.2 673.4;" xml:space="preserve">
<style type="text/css">
	.st0{opacity:0.64;fill:#FFCC03;}
	.st1{opacity:0.64;fill:#EA5F9D;}
	.st2{opacity:0.64;fill:#F5F5F5;}
	.st3{opacity:0.64;fill:#FFFFFF;}
</style>
<circle class="st0" cx="1847.6" cy="510.4" r="2.4"/>
<path class="st1" d="M916.9,532.7c0,0-2.6-1.5-3-1.4s0.3,3.1,0.3,3.1s-2.3,1.3-2.1,1.8c0.2,0.5,3.3,1,3.3,1s0.6,3.8,1,3.7
	c0.4-0.2,1.6-3.9,1.6-3.9s3.7,0.6,3.8,0.1c0.2-0.5-2.6-2.2-2.6-2.2s0.7-3.2,0.4-3.4C919.4,531.4,916.9,532.7,916.9,532.7z"/>
<circle class="st1" cx="1138.1" cy="548.8" r="2.9"/>
<path class="st1" d="M48.5,55.2c0,0-2.7-1.6-3.1-1.4c-0.4,0.2,0.3,3.2,0.3,3.2s-2.3,1.4-2.2,1.9s3.4,1,3.4,1s0.6,3.9,1,3.8
	c0.4-0.2,1.6-4,1.6-4s3.8,0.7,3.9,0.1c0.2-0.5-2.7-2.3-2.7-2.3s0.7-3.3,0.4-3.5C51.1,53.8,48.5,55.2,48.5,55.2z"/>
<path class="st1" d="M58.6,111.6c0,0-2.7-1.6-3.1-1.4c-0.4,0.2,0.3,3.2,0.3,3.2s-2.3,1.4-2.2,1.9s3.4,1,3.4,1s0.6,3.9,1,3.8
	c0.4-0.2,1.6-4,1.6-4s3.8,0.7,3.9,0.1c0.2-0.5-2.7-2.3-2.7-2.3s0.7-3.3,0.4-3.5C61.1,110.2,58.6,111.6,58.6,111.6z"/>
<path class="st1" d="M266.1,76.8c0,0-2.7-1.6-3.1-1.4s0.3,3.2,0.3,3.2s-2.3,1.4-2.2,1.9c0.2,0.5,3.4,1,3.4,1s0.6,3.9,1,3.8
	c0.4-0.2,1.6-4,1.6-4s3.8,0.7,3.9,0.1c0.2-0.5-2.7-2.3-2.7-2.3s0.7-3.3,0.4-3.5C268.7,75.4,266.1,76.8,266.1,76.8z"/>
<path class="st1" d="M285.2,136c0,0-2.7-1.6-3.1-1.4c-0.4,0.2,0.3,3.2,0.3,3.2s-2.3,1.4-2.2,1.9c0.2,0.5,3.4,1,3.4,1s0.6,3.9,1,3.8
	c0.4-0.2,1.6-4,1.6-4s3.8,0.7,3.9,0.1c0.2-0.5-2.7-2.3-2.7-2.3s0.7-3.3,0.4-3.5C287.8,134.6,285.2,136,285.2,136z"/>
<path class="st1" d="M361.2,68.7c0,0-2.7-1.6-3.1-1.4c-0.4,0.2,0.3,3.2,0.3,3.2s-2.3,1.4-2.2,1.9c0.2,0.5,3.4,1,3.4,1s0.6,3.9,1,3.8
	c0.4-0.2,1.6-4,1.6-4s3.8,0.7,3.9,0.1c0.2-0.5-2.7-2.3-2.7-2.3s0.7-3.3,0.4-3.5C363.8,67.3,361.2,68.7,361.2,68.7z"/>
<path class="st1" d="M171.3,155.2c0,0-2.7-1.6-3.1-1.4s0.3,3.2,0.3,3.2s-2.3,1.4-2.2,1.9s3.4,1,3.4,1s0.6,3.9,1,3.8
	c0.4-0.2,1.6-4,1.6-4s3.8,0.7,3.9,0.1c0.2-0.5-2.7-2.3-2.7-2.3s0.7-3.3,0.4-3.5C173.9,153.8,171.3,155.2,171.3,155.2z"/>
<path class="st0" d="M110.8,111.6c0,0-2.7-1.6-3.1-1.4c-0.4,0.2,0.3,3.2,0.3,3.2s-2.3,1.4-2.2,1.9c0.2,0.5,3.4,1,3.4,1
	s0.6,3.9,1,3.8c0.4-0.2,1.6-4,1.6-4s3.8,0.7,3.9,0.1c0.2-0.5-2.7-2.3-2.7-2.3s0.7-3.3,0.4-3.5C113.3,110.2,110.8,111.6,110.8,111.6z
	"/>
<path class="st2" d="M131.8,46.4c0,0-2-1.2-2.3-1.1c-0.3,0.1,0.3,2.4,0.3,2.4s-1.8,1-1.6,1.4c0.1,0.4,2.6,0.7,2.6,0.7s0.5,3,0.8,2.9
	c0.3-0.1,1.3-3.1,1.3-3.1s2.9,0.5,3,0.1c0.1-0.4-2-1.7-2-1.7s0.5-2.5,0.3-2.7S131.8,46.4,131.8,46.4z"/>
<path class="st2" d="M381.5,223.8c0,0-2-1.2-2.3-1.1s0.3,2.4,0.3,2.4s-1.8,1-1.6,1.4c0.1,0.4,2.6,0.7,2.6,0.7s0.5,3,0.8,2.9
	c0.3-0.1,1.3-3.1,1.3-3.1s2.9,0.5,3,0.1s-2-1.7-2-1.7s0.5-2.5,0.3-2.7C383.5,222.8,381.5,223.8,381.5,223.8z"/>
<path class="st2" d="M671.9,290.2c0,0-2-1.2-2.3-1.1c-0.3,0.1,0.3,2.4,0.3,2.4s-1.8,1-1.6,1.4c0.1,0.4,2.6,0.7,2.6,0.7
	s0.5,3,0.8,2.9s1.3-3.1,1.3-3.1s2.9,0.5,3,0.1c0.1-0.4-2-1.7-2-1.7s0.5-2.5,0.3-2.7S671.9,290.2,671.9,290.2z"/>
<path class="st2" d="M252.3,107.7c0,0-2-1.2-2.3-1.1c-0.3,0.1,0.3,2.4,0.3,2.4s-1.8,1-1.6,1.4c0.1,0.4,2.6,0.7,2.6,0.7
	s0.5,3,0.8,2.9s1.3-3.1,1.3-3.1s2.9,0.5,3,0.1s-2-1.7-2-1.7s0.5-2.5,0.3-2.7S252.3,107.7,252.3,107.7z"/>
<path class="st2" d="M129,201.8c0,0-2-1.2-2.3-1.1c-0.3,0.1,0.3,2.4,0.3,2.4s-1.8,1-1.6,1.4c0.1,0.4,2.6,0.7,2.6,0.7s0.5,3,0.8,2.9
	s1.3-3.1,1.3-3.1s2.9,0.5,3,0.1s-2-1.7-2-1.7s0.5-2.5,0.3-2.7S129,201.8,129,201.8z"/>
<path class="st0" d="M183.9,259.7c0,0-2.7-1.6-3.1-1.4c-0.4,0.2,0.3,3.2,0.3,3.2s-2.3,1.4-2.2,1.9c0.2,0.5,3.4,1,3.4,1
	s0.6,3.9,1,3.8c0.4-0.2,1.6-4,1.6-4s3.8,0.7,3.9,0.1c0.2-0.5-2.7-2.3-2.7-2.3s0.7-3.3,0.4-3.5S183.9,259.7,183.9,259.7z"/>
<path class="st0" d="M251.1,151.5c0,0-2.7-1.6-3.1-1.4c-0.4,0.2,0.3,3.2,0.3,3.2s-2.3,1.4-2.2,1.9c0.2,0.5,3.4,1,3.4,1
	s0.6,3.9,1,3.8c0.4-0.2,1.6-4,1.6-4s3.8,0.7,3.9,0.1c0.2-0.5-2.7-2.3-2.7-2.3s0.7-3.3,0.4-3.5C253.6,150,251.1,151.5,251.1,151.5z"
	/>
<path class="st0" d="M315.1,79.9c0,0-2.7-1.6-3.1-1.4c-0.4,0.2,0.3,3.2,0.3,3.2s-2.3,1.4-2.2,1.9c0.2,0.5,3.4,1,3.4,1s0.6,3.9,1,3.8
	c0.4-0.2,1.6-4,1.6-4s3.8,0.7,3.9,0.1c0.2-0.5-2.7-2.3-2.7-2.3s0.7-3.3,0.4-3.5C317.7,78.5,315.1,79.9,315.1,79.9z"/>
<circle class="st1" cx="105.9" cy="54" r="2.9"/>
<circle class="st1" cx="43.6" cy="200.7" r="2.9"/>
<circle class="st1" cx="37.5" cy="24.8" r="2.1"/>
<circle class="st1" cx="385.9" cy="196.3" r="2.9"/>
<circle class="st1" cx="422.2" cy="296.1" r="2.9"/>
<circle class="st1" cx="324" cy="167.9" r="2.9"/>
<circle class="st1" cx="349.3" cy="108.4" r="2.9"/>
<circle class="st1" cx="207.4" cy="195.9" r="2.9"/>
<circle class="st1" cx="228.2" cy="104.4" r="2.9"/>
<circle class="st0" cx="40" cy="144.4" r="2.5"/>
<circle class="st0" cx="342.6" cy="295.7" r="2.5"/>
<circle class="st0" cx="345.5" cy="215.5" r="2.5"/>
<circle class="st0" cx="89.1" cy="167.9" r="2.5"/>
<circle class="st0" cx="48.7" cy="256.9" r="2.5"/>
<circle class="st0" cx="324" cy="265.9" r="2.5"/>
<circle class="st0" cx="273.4" cy="215.5" r="2.5"/>
<circle class="st0" cx="163.9" cy="83.4" r="2.5"/>
<circle class="st0" cx="425.6" cy="139.7" r="2.5"/>
<circle class="st0" cx="352.9" cy="136.2" r="2.5"/>
<circle class="st0" cx="396.4" cy="136.2" r="2.5"/>
<circle class="st0" cx="408.9" cy="54" r="2.5"/>
<path class="st1" d="M458.7,50.5c0,0-2.7-1.6-3.1-1.4c-0.4,0.2,0.3,3.2,0.3,3.2s-2.3,1.4-2.2,1.9s3.4,1,3.4,1s0.6,3.9,1,3.8
	c0.4-0.2,1.6-4,1.6-4s3.8,0.7,3.9,0.1c0.2-0.5-2.7-2.3-2.7-2.3s0.7-3.3,0.4-3.5C461.3,49.1,458.7,50.5,458.7,50.5z"/>
<path class="st1" d="M491.7,87.2c0,0-2.7-1.6-3.1-1.4c-0.4,0.2,0.3,3.2,0.3,3.2s-2.3,1.4-2.2,1.9c0.2,0.5,3.4,1,3.4,1s0.6,3.9,1,3.8
	c0.4-0.2,1.6-4,1.6-4s3.8,0.7,3.9,0.1c0.2-0.5-2.7-2.3-2.7-2.3s0.7-3.3,0.4-3.5C494.2,85.7,491.7,87.2,491.7,87.2z"/>
<path class="st1" d="M656.3,68.9c0,0-2.7-1.6-3.1-1.4c-0.4,0.2,0.3,3.2,0.3,3.2s-2.3,1.4-2.2,1.9s3.4,1,3.4,1s0.6,3.9,1,3.8
	c0.4-0.2,1.6-4,1.6-4s3.8,0.7,3.9,0.1c0.2-0.5-2.7-2.3-2.7-2.3s0.7-3.3,0.4-3.5C658.8,67.5,656.3,68.9,656.3,68.9z"/>
<path class="st1" d="M677.6,189.8c0,0-2.7-1.6-3.1-1.4c-0.4,0.2,0.3,3.2,0.3,3.2s-2.3,1.4-2.2,1.9s3.4,1,3.4,1s0.6,3.9,1,3.8
	c0.4-0.2,1.6-4,1.6-4s3.8,0.7,3.9,0.1c0.2-0.5-2.7-2.3-2.7-2.3s0.7-3.3,0.4-3.5C680.2,188.4,677.6,189.8,677.6,189.8z"/>
<path class="st1" d="M771.4,64c0,0-2.7-1.6-3.1-1.4c-0.4,0.2,0.3,3.2,0.3,3.2s-2.3,1.4-2.2,1.9c0.2,0.5,3.4,1,3.4,1s0.6,3.9,1,3.8
	c0.4-0.2,1.6-4,1.6-4s3.8,0.7,3.9,0.1c0.2-0.5-2.7-2.3-2.7-2.3s0.7-3.3,0.4-3.5C774,62.5,771.4,64,771.4,64z"/>
<path class="st1" d="M582.1,189.8c0,0-2.7-1.6-3.1-1.4c-0.4,0.2,0.3,3.2,0.3,3.2s-2.3,1.4-2.2,1.9s3.4,1,3.4,1s0.6,3.9,1,3.8
	c0.4-0.2,1.6-4,1.6-4s3.8,0.7,3.9,0.1c0.2-0.5-2.7-2.3-2.7-2.3s0.7-3.3,0.4-3.5C584.6,188.4,582.1,189.8,582.1,189.8z"/>
<path class="st0" d="M521.5,146.2c0,0-2.7-1.6-3.1-1.4c-0.4,0.2,0.3,3.2,0.3,3.2s-2.3,1.4-2.2,1.9s3.4,1,3.4,1s0.6,3.9,1,3.8
	s1.6-4,1.6-4s3.8,0.7,3.9,0.1s-2.7-2.3-2.7-2.3s0.7-3.3,0.4-3.5S521.5,146.2,521.5,146.2z"/>
<path class="st0" d="M491.7,49.3c0,0-2.7-1.6-3.1-1.4c-0.4,0.2,0.3,3.2,0.3,3.2s-2.3,1.4-2.2,1.9c0.2,0.5,3.4,1,3.4,1s0.6,3.9,1,3.8
	c0.4-0.2,1.6-4,1.6-4s3.8,0.7,3.9,0.1c0.2-0.5-2.7-2.3-2.7-2.3s0.7-3.3,0.4-3.5C494.2,47.9,491.7,49.3,491.7,49.3z"/>
<path class="st0" d="M198.4,339.8c0,0-2.7-1.6-3.1-1.4s0.3,3.2,0.3,3.2s-2.3,1.4-2.2,1.9c0.2,0.5,3.4,1,3.4,1s0.6,3.9,1,3.8
	s1.6-4,1.6-4s3.8,0.7,3.9,0.1c0.2-0.5-2.7-2.3-2.7-2.3s0.7-3.3,0.4-3.5C201,338.3,198.4,339.8,198.4,339.8z"/>
<path class="st2" d="M566.7,68.6c0,0-2-1.2-2.3-1.1c-0.3,0.1,0.3,2.4,0.3,2.4s-1.8,1-1.6,1.4s2.6,0.7,2.6,0.7s0.5,3,0.8,2.9
	c0.3-0.1,1.3-3.1,1.3-3.1s2.9,0.5,3,0.1c0.1-0.4-2-1.7-2-1.7s0.5-2.5,0.3-2.7S566.7,68.6,566.7,68.6z"/>
<path class="st3" d="M437.6,97c0,0-2-1.2-2.3-1.1c-0.3,0.1,0.3,2.4,0.3,2.4s-1.8,1-1.6,1.4s2.6,0.7,2.6,0.7s0.5,3,0.8,2.9
	s1.3-3.1,1.3-3.1s2.9,0.5,3,0.1s-2-1.7-2-1.7s0.5-2.5,0.3-2.7C439.5,95.9,437.6,97,437.6,97z"/>
<path class="st0" d="M659.2,62.7c0,0-2.7-1.6-3.1-1.4c-0.4,0.2,0.3,3.2,0.3,3.2s-2.3,1.4-2.2,1.9c0.2,0.5,3.4,1,3.4,1s0.6,3.9,1,3.8
	c0.4-0.2,1.6-4,1.6-4s3.8,0.7,3.9,0.1c0.2-0.5-2.7-2.3-2.7-2.3s0.7-3.3,0.4-3.5S659.2,62.7,659.2,62.7z"/>
<path class="st0" d="M594.6,294.3c0,0-2.7-1.6-3.1-1.4c-0.4,0.2,0.3,3.2,0.3,3.2s-2.3,1.4-2.2,1.9c0.2,0.5,3.4,1,3.4,1
	s0.6,3.9,1,3.8c0.4-0.2,1.6-4,1.6-4s3.8,0.7,3.9,0.1c0.2-0.5-2.7-2.3-2.7-2.3s0.7-3.3,0.4-3.5C597.2,292.8,594.6,294.3,594.6,294.3z
	"/>
<path class="st0" d="M642.8,191c0,0-2.7-1.6-3.1-1.4c-0.4,0.2,0.3,3.2,0.3,3.2s-2.3,1.4-2.2,1.9c0.2,0.5,3.4,1,3.4,1s0.6,3.9,1,3.8
	s1.6-4,1.6-4s3.8,0.7,3.9,0.1c0.2-0.5-2.7-2.3-2.7-2.3s0.7-3.3,0.4-3.5C645.4,189.5,642.8,191,642.8,191z"/>
<circle class="st3" cx="458.9" cy="167.9" r="2.7"/>
<circle class="st3" cx="623.3" cy="161.3" r="2.7"/>
<circle class="st3" cx="194.9" cy="120.1" r="2.7"/>
<circle class="st3" cx="33.6" cy="171.6" r="2.7"/>
<circle class="st1" cx="505.7" cy="17.2" r="2.9"/>
<circle class="st1" cx="788.3" cy="289.1" r="2.9"/>
<circle class="st1" cx="618.1" cy="230.5" r="2.9"/>
<circle class="st0" cx="505.7" cy="149.1" r="2.5"/>
<circle class="st0" cx="814.6" cy="325.2" r="2.5"/>
<circle class="st0" cx="702" cy="39.9" r="2.5"/>
<circle class="st0" cx="541.1" cy="261.6" r="2.5"/>
<circle class="st0" cx="505.7" cy="220.7" r="2.5"/>
<circle class="st0" cx="458.9" cy="252.2" r="2.5"/>
<path class="st0" d="M819.5,146.2c0,0-2.7-1.6-3.1-1.4c-0.4,0.2,0.3,3.2,0.3,3.2s-2.3,1.4-2.2,1.9s3.4,1,3.4,1s0.6,3.9,1,3.8
	s1.6-4,1.6-4s3.8,0.7,3.9,0.1s-2.7-2.3-2.7-2.3s0.7-3.3,0.4-3.5S819.5,146.2,819.5,146.2z"/>
<circle class="st3" cx="756.9" cy="167.9" r="2.7"/>
<circle class="st0" cx="839.1" cy="261.6" r="2.5"/>
<circle class="st0" cx="803.7" cy="220.7" r="2.5"/>
<circle class="st0" cx="756.9" cy="252.2" r="2.5"/>
<circle class="st0" cx="734.7" cy="300.5" r="2.5"/>
<circle class="st0" cx="684.1" cy="250.1" r="2.5"/>
<circle class="st0" cx="576.6" cy="99.6" r="2.5"/>
<path class="st3" d="M849.1,34c0,0-2.7-1.6-3.1-1.4c-0.4,0.2,0.3,3.2,0.3,3.2s-2.3,1.4-2.2,1.9c0.2,0.5,3.4,1,3.4,1s0.6,3.9,1,3.8
	c0.4-0.2,1.6-4,1.6-4s3.8,0.7,3.9,0.1c0.2-0.5-2.7-2.3-2.7-2.3s0.7-3.3,0.4-3.5C851.7,32.6,849.1,34,849.1,34z"/>
<path class="st3" d="M905.2,60.4c0,0-2.7-1.6-3.1-1.4c-0.4,0.2,0.3,3.2,0.3,3.2s-2.3,1.4-2.2,1.9c0.2,0.5,3.4,1,3.4,1s0.6,3.9,1,3.8
	c0.4-0.2,1.6-4,1.6-4s3.8,0.7,3.9,0.1c0.2-0.5-2.7-2.3-2.7-2.3s0.7-3.3,0.4-3.5C907.7,59,905.2,60.4,905.2,60.4z"/>
<path class="st3" d="M1208.7,81.3c0,0-2.7-1.6-3.1-1.4c-0.4,0.2,0.3,3.2,0.3,3.2s-2.3,1.4-2.2,1.9c0.2,0.5,3.4,1,3.4,1
	s0.6,3.9,1,3.8s1.6-4,1.6-4s3.8,0.7,3.9,0.1s-2.7-2.3-2.7-2.3s0.7-3.3,0.4-3.5C1211.2,79.9,1208.7,81.3,1208.7,81.3z"/>
<path class="st0" d="M992.6,41.8c0,0-2.7-1.6-3.1-1.4c-0.4,0.2,0.3,3.2,0.3,3.2s-2.3,1.4-2.2,1.9s3.4,1,3.4,1s0.6,3.9,1,3.8
	c0.4-0.2,1.6-4,1.6-4s3.8,0.7,3.9,0.1c0.2-0.5-2.7-2.3-2.7-2.3s0.7-3.3,0.4-3.5S992.6,41.8,992.6,41.8z"/>
<circle class="st1" cx="882.3" cy="37" r="2.9"/>
<circle class="st1" cx="849.2" cy="25" r="2.1"/>
<circle class="st1" cx="1224.7" cy="236.7" r="2.9"/>
<circle class="st0" cx="1082.5" cy="28.9" r="2.5"/>
<circle class="st0" cx="1327.8" cy="47.8" r="2.5"/>
<path class="st1" d="M1273.3,36.9c0,0-2.7-1.6-3.1-1.4c-0.4,0.2,0.3,3.2,0.3,3.2s-2.3,1.4-2.2,1.9s3.4,1,3.4,1s0.6,3.9,1,3.8
	c0.4-0.2,1.6-4,1.6-4s3.8,0.7,3.9,0.1c0.2-0.5-2.7-2.3-2.7-2.3s0.7-3.3,0.4-3.5C1275.9,35.4,1273.3,36.9,1273.3,36.9z"/>
<path class="st1" d="M1303.4,77.3c0,0-2.7-1.6-3.1-1.4c-0.4,0.2,0.3,3.2,0.3,3.2s-2.3,1.4-2.2,1.9c0.2,0.5,3.4,1,3.4,1
	s0.6,3.9,1,3.8c0.4-0.2,1.6-4,1.6-4s3.8,0.7,3.9,0.1c0.2-0.5-2.7-2.3-2.7-2.3s0.7-3.3,0.4-3.5C1305.9,75.9,1303.4,77.3,1303.4,77.3z
	"/>
<path class="st1" d="M728.8,163.1c0,0-2.7-1.6-3.1-1.4c-0.4,0.2,0.3,3.2,0.3,3.2s-2.3,1.4-2.2,1.9s3.4,1,3.4,1s0.6,3.9,1,3.8
	s1.6-4,1.6-4s3.8,0.7,3.9,0.1s-2.7-2.3-2.7-2.3s0.7-3.3,0.4-3.5S728.8,163.1,728.8,163.1z"/>
<path class="st0" d="M739.4,81.3c0,0-2.7-1.6-3.1-1.4s0.3,3.2,0.3,3.2s-2.3,1.4-2.2,1.9c0.2,0.5,3.4,1,3.4,1s0.6,3.9,1,3.8
	s1.6-4,1.6-4s3.8,0.7,3.9,0.1s-2.7-2.3-2.7-2.3s0.7-3.3,0.4-3.5C742,79.9,739.4,81.3,739.4,81.3z"/>
<path class="st3" d="M805.9,83.9c0,0-2.7-1.6-3.1-1.4c-0.4,0.2,0.3,3.2,0.3,3.2s-2.3,1.4-2.2,1.9c0.2,0.5,3.4,1,3.4,1s0.6,3.9,1,3.8
	c0.4-0.2,1.6-4,1.6-4s3.8,0.7,3.9,0.1c0.2-0.5-2.7-2.3-2.7-2.3s0.7-3.3,0.4-3.5C808.5,82.5,805.9,83.9,805.9,83.9z"/>
<path class="st1" d="M1113.9,88.8c0,0-2.7-1.6-3.1-1.4c-0.4,0.2,0.3,3.2,0.3,3.2s-2.3,1.4-2.2,1.9s3.4,1,3.4,1s0.6,3.9,1,3.8
	c0.4-0.2,1.6-4,1.6-4s3.8,0.7,3.9,0.1c0.2-0.5-2.7-2.3-2.7-2.3s0.7-3.3,0.4-3.5C1116.5,87.4,1113.9,88.8,1113.9,88.8z"/>
<path class="st0" d="M949.4,101.7c0,0-2.7-1.6-3.1-1.4c-0.4,0.2,0.3,3.2,0.3,3.2s-2.3,1.4-2.2,1.9c0.2,0.5,3.4,1,3.4,1
	s0.6,3.9,1,3.8s1.6-4,1.6-4s3.8,0.7,3.9,0.1s-2.7-2.3-2.7-2.3s0.7-3.3,0.4-3.5C951.9,100.2,949.4,101.7,949.4,101.7z"/>
<circle class="st1" cx="839.1" cy="86.9" r="2.9"/>
<circle class="st1" cx="806.1" cy="74.8" r="2.1"/>
<circle class="st0" cx="1039.3" cy="88.7" r="2.5"/>
<path class="st3" d="M1132.2,81.3c0,0-2.7-1.6-3.1-1.4s0.3,3.2,0.3,3.2s-2.3,1.4-2.2,1.9c0.2,0.5,3.4,1,3.4,1s0.6,3.9,1,3.8
	s1.6-4,1.6-4s3.8,0.7,3.9,0.1s-2.7-2.3-2.7-2.3s0.7-3.3,0.4-3.5C1134.8,79.9,1132.2,81.3,1132.2,81.3z"/>
<path class="st3" d="M1264.4,44.3c0,0-2.7-1.6-3.1-1.4c-0.4,0.2,0.3,3.2,0.3,3.2s-2.3,1.4-2.2,1.9c0.2,0.5,3.4,1,3.4,1
	s0.6,3.9,1,3.8c0.4-0.2,1.6-4,1.6-4s3.8,0.7,3.9,0.1c0.2-0.5-2.7-2.3-2.7-2.3s0.7-3.3,0.4-3.5C1266.9,42.9,1264.4,44.3,1264.4,44.3z
	"/>
<path class="st1" d="M1488.1,62.2c0,0-2.7-1.6-3.1-1.4c-0.4,0.2,0.3,3.2,0.3,3.2s-2.3,1.4-2.2,1.9c0.2,0.5,3.4,1,3.4,1
	s0.6,3.9,1,3.8s1.6-4,1.6-4s3.8,0.7,3.9,0.1s-2.7-2.3-2.7-2.3s0.7-3.3,0.4-3.5C1490.6,60.8,1488.1,62.2,1488.1,62.2z"/>
<path class="st1" d="M1507.2,121.4c0,0-2.7-1.6-3.1-1.4c-0.4,0.2,0.3,3.2,0.3,3.2s-2.3,1.4-2.2,1.9c0.2,0.5,3.4,1,3.4,1
	s0.6,3.9,1,3.8s1.6-4,1.6-4s3.8,0.7,3.9,0.1c0.2-0.5-2.7-2.3-2.7-2.3s0.7-3.3,0.4-3.5C1509.7,120,1507.2,121.4,1507.2,121.4z"/>
<path class="st1" d="M1583.2,54.1c0,0-2.7-1.6-3.1-1.4c-0.4,0.2,0.3,3.2,0.3,3.2s-2.3,1.4-2.2,1.9s3.4,1,3.4,1s0.6,3.9,1,3.8
	c0.4-0.2,1.6-4,1.6-4s3.8,0.7,3.9,0.1c0.2-0.5-2.7-2.3-2.7-2.3s0.7-3.3,0.4-3.5S1583.2,54.1,1583.2,54.1z"/>
<path class="st1" d="M1393.8,180c0,0-2.7-1.6-3.1-1.4c-0.4,0.2,0.3,3.2,0.3,3.2s-2.3,1.4-2.2,1.9c0.2,0.5,3.4,1,3.4,1s0.6,3.9,1,3.8
	s1.6-4,1.6-4s3.8,0.7,3.9,0.1s-2.7-2.3-2.7-2.3s0.7-3.3,0.4-3.5C1396.3,178.5,1393.8,180,1393.8,180z"/>
<path class="st0" d="M1332.7,97c0,0-2.7-1.6-3.1-1.4c-0.4,0.2,0.3,3.2,0.3,3.2s-2.3,1.4-2.2,1.9c0.2,0.5,3.4,1,3.4,1s0.6,3.9,1,3.8
	c0.4-0.2,1.6-4,1.6-4s3.8,0.7,3.9,0.1s-2.7-2.3-2.7-2.3s0.7-3.3,0.4-3.5C1335.3,95.6,1332.7,97,1332.7,97z"/>
<path class="st2" d="M1378.5,58.7c0,0-2-1.2-2.3-1.1c-0.3,0.1,0.3,2.4,0.3,2.4s-1.8,1-1.6,1.4s2.6,0.7,2.6,0.7s0.5,3,0.8,2.9
	c0.3-0.1,1.3-3.1,1.3-3.1s2.9,0.5,3,0.1c0.1-0.4-2-1.7-2-1.7s0.5-2.5,0.3-2.7S1378.5,58.7,1378.5,58.7z"/>
<path class="st0" d="M1406.4,284.4c0,0-2.7-1.6-3.1-1.4s0.3,3.2,0.3,3.2s-2.3,1.4-2.2,1.9s3.4,1,3.4,1s0.6,3.9,1,3.8
	c0.4-0.2,1.6-4,1.6-4s3.8,0.7,3.9,0.1c0.2-0.5-2.7-2.3-2.7-2.3s0.7-3.3,0.4-3.5S1406.4,284.4,1406.4,284.4z"/>
<path class="st0" d="M1473,136.9c0,0-2.7-1.6-3.1-1.4c-0.4,0.2,0.3,3.2,0.3,3.2s-2.3,1.4-2.2,1.9s3.4,1,3.4,1s0.6,3.9,1,3.8
	s1.6-4,1.6-4s3.8,0.7,3.9,0.1s-2.7-2.3-2.7-2.3s0.7-3.3,0.4-3.5C1475.6,135.4,1473,136.9,1473,136.9z"/>
<path class="st0" d="M1537.1,65.4c0,0-2.7-1.6-3.1-1.4c-0.4,0.2,0.3,3.2,0.3,3.2s-2.3,1.4-2.2,1.9s3.4,1,3.4,1s0.6,3.9,1,3.8
	c0.4-0.2,1.6-4,1.6-4s3.8,0.7,3.9,0.1c0.2-0.5-2.7-2.3-2.7-2.3s0.7-3.3,0.4-3.5C1539.6,63.9,1537.1,65.4,1537.1,65.4z"/>
<circle class="st1" cx="1607.9" cy="181.7" r="2.9"/>
<circle class="st1" cx="1546" cy="153.3" r="2.9"/>
<circle class="st1" cx="1571.3" cy="93.8" r="2.9"/>
<circle class="st1" cx="1429.3" cy="181.3" r="2.9"/>
<circle class="st1" cx="1450.2" cy="89.8" r="2.9"/>
<circle class="st0" cx="1317.9" cy="178.5" r="2.5"/>
<circle class="st0" cx="1567.5" cy="200.9" r="2.5"/>
<circle class="st0" cx="1352.9" cy="251.7" r="2.5"/>
<circle class="st0" cx="1317.9" cy="224.5" r="2.5"/>
<circle class="st0" cx="1252.7" cy="173.5" r="2.5"/>
<circle class="st0" cx="1546" cy="251.3" r="2.5"/>
<circle class="st0" cx="1495.3" cy="200.9" r="2.5"/>
<circle class="st0" cx="1388.4" cy="89.8" r="2.5"/>
<circle class="st0" cx="1574.8" cy="121.6" r="2.5"/>
<circle class="st0" cx="1614.3" cy="108.7" r="2.5"/>
<circle class="st0" cx="1674.1" cy="71.4" r="2.5"/>
<path class="st1" d="M1657.9,52.4c0,0-2.7-1.6-3.1-1.4c-0.4,0.2,0.3,3.2,0.3,3.2s-2.3,1.4-2.2,1.9s3.4,1,3.4,1s0.6,3.9,1,3.8
	c0.4-0.2,1.6-4,1.6-4s3.8,0.7,3.9,0.1s-2.7-2.3-2.7-2.3s0.7-3.3,0.4-3.5C1660.5,50.9,1657.9,52.4,1657.9,52.4z"/>
<path class="st1" d="M1690.8,89.1c0,0-2.7-1.6-3.1-1.4s0.3,3.2,0.3,3.2s-2.3,1.4-2.2,1.9c0.2,0.5,3.4,1,3.4,1s0.6,3.9,1,3.8
	c0.4-0.2,1.6-4,1.6-4s3.8,0.7,3.9,0.1s-2.7-2.3-2.7-2.3s0.7-3.3,0.4-3.5C1693.4,87.6,1690.8,89.1,1690.8,89.1z"/>
<path class="st3" d="M1537.1,65.4c0,0-2.7-1.6-3.1-1.4c-0.4,0.2,0.3,3.2,0.3,3.2s-2.3,1.4-2.2,1.9s3.4,1,3.4,1s0.6,3.9,1,3.8
	c0.4-0.2,1.6-4,1.6-4s3.8,0.7,3.9,0.1c0.2-0.5-2.7-2.3-2.7-2.3s0.7-3.3,0.4-3.5C1539.6,63.9,1537.1,65.4,1537.1,65.4z"/>
<path class="st3" d="M1785.7,202.2c0,0-2.7-1.6-3.1-1.4s0.3,3.2,0.3,3.2s-2.3,1.4-2.2,1.9s3.4,1,3.4,1s0.6,3.9,1,3.8
	c0.4-0.2,1.6-4,1.6-4s3.8,0.7,3.9,0.1c0.2-0.5-2.7-2.3-2.7-2.3s0.7-3.3,0.4-3.5C1788.3,200.8,1785.7,202.2,1785.7,202.2z"/>
<path class="st3" d="M1509.7,181.7c0,0-2.7-1.6-3.1-1.4s0.3,3.2,0.3,3.2s-2.3,1.4-2.2,1.9s3.4,1,3.4,1s0.6,3.9,1,3.8s1.6-4,1.6-4
	s3.8,0.7,3.9,0.1c0.2-0.5-2.7-2.3-2.7-2.3s0.7-3.3,0.4-3.5C1512.2,180.3,1509.7,181.7,1509.7,181.7z"/>
<path class="st1" d="M1206.2,121.4c0,0-2.7-1.6-3.1-1.4c-0.4,0.2,0.3,3.2,0.3,3.2s-2.3,1.4-2.2,1.9c0.2,0.5,3.4,1,3.4,1
	s0.6,3.9,1,3.8s1.6-4,1.6-4s3.8,0.7,3.9,0.1c0.2-0.5-2.7-2.3-2.7-2.3s0.7-3.3,0.4-3.5C1208.7,120,1206.2,121.4,1206.2,121.4z"/>
<path class="st0" d="M1172,136.9c0,0-2.7-1.6-3.1-1.4c-0.4,0.2,0.3,3.2,0.3,3.2s-2.3,1.4-2.2,1.9s3.4,1,3.4,1s0.6,3.9,1,3.8
	s1.6-4,1.6-4s3.8,0.7,3.9,0.1s-2.7-2.3-2.7-2.3s0.7-3.3,0.4-3.5C1174.6,135.4,1172,136.9,1172,136.9z"/>
<circle class="st1" cx="1128.3" cy="181.3" r="2.9"/>
<circle class="st0" cx="1194.3" cy="200.9" r="2.5"/>
<path class="st3" d="M1208.7,181.7c0,0-2.7-1.6-3.1-1.4s0.3,3.2,0.3,3.2s-2.3,1.4-2.2,1.9s3.4,1,3.4,1s0.6,3.9,1,3.8s1.6-4,1.6-4
	s3.8,0.7,3.9,0.1c0.2-0.5-2.7-2.3-2.7-2.3s0.7-3.3,0.4-3.5C1211.2,180.3,1208.7,181.7,1208.7,181.7z"/>
<path class="st3" d="M1641.8,232.7c0,0-2.7-1.6-3.1-1.4c-0.4,0.2,0.3,3.2,0.3,3.2s-2.3,1.4-2.2,1.9s3.4,1,3.4,1s0.6,3.9,1,3.8
	s1.6-4,1.6-4s3.8,0.7,3.9,0.1s-2.7-2.3-2.7-2.3s0.7-3.3,0.4-3.5C1644.4,231.3,1641.8,232.7,1641.8,232.7z"/>
<path class="st3" d="M1596.6,412c0,0-2.7-1.6-3.1-1.4s0.3,3.2,0.3,3.2s-2.3,1.4-2.2,1.9c0.2,0.5,3.4,1,3.4,1s0.6,3.9,1,3.8
	s1.6-4,1.6-4s3.8,0.7,3.9,0.1c0.2-0.5-2.7-2.3-2.7-2.3s0.7-3.3,0.4-3.5C1599.1,410.6,1596.6,412,1596.6,412z"/>
<path class="st3" d="M1456.5,313.4c0,0-2.7-1.6-3.1-1.4s0.3,3.2,0.3,3.2s-2.3,1.4-2.2,1.9c0.2,0.5,3.4,1,3.4,1s0.6,3.9,1,3.8
	s1.6-4,1.6-4s3.8,0.7,3.9,0.1s-2.7-2.3-2.7-2.3s0.7-3.3,0.4-3.5C1459.1,311.9,1456.5,313.4,1456.5,313.4z"/>
<path class="st1" d="M1875.5,80.9c0,0-2.7-1.6-3.1-1.4c-0.4,0.2,0.3,3.2,0.3,3.2s-2.3,1.4-2.2,1.9c0.2,0.5,3.4,1,3.4,1
	s0.6,3.9,1,3.8c0.4-0.2,1.6-4,1.6-4s3.8,0.7,3.9,0.1c0.2-0.5-2.7-2.3-2.7-2.3s0.7-3.3,0.4-3.5S1875.5,80.9,1875.5,80.9z"/>
<path class="st1" d="M1780.7,152.4c0,0-2.7-1.6-3.1-1.4c-0.4,0.2,0.3,3.2,0.3,3.2s-2.3,1.4-2.2,1.9c0.2,0.5,3.4,1,3.4,1
	s0.6,3.9,1,3.8c0.4-0.2,1.6-4,1.6-4s3.8,0.7,3.9,0.1s-2.7-2.3-2.7-2.3s0.7-3.3,0.4-3.5C1783.2,151,1780.7,152.4,1780.7,152.4z"/>
<path class="st0" d="M1720.2,108.8c0,0-2.7-1.6-3.1-1.4s0.3,3.2,0.3,3.2s-2.3,1.4-2.2,1.9c0.2,0.5,3.4,1,3.4,1s0.6,3.9,1,3.8
	s1.6-4,1.6-4s3.8,0.7,3.9,0.1s-2.7-2.3-2.7-2.3s0.7-3.3,0.4-3.5C1722.7,107.4,1720.2,108.8,1720.2,108.8z"/>
<path class="st2" d="M1765.9,70.5c0,0-2-1.2-2.3-1.1c-0.3,0.1,0.3,2.4,0.3,2.4s-1.8,1-1.6,1.4s2.6,0.7,2.6,0.7s0.5,3,0.8,2.9
	c0.3-0.1,1.3-3.1,1.3-3.1s2.9,0.5,3,0.1c0.1-0.4-2-1.7-2-1.7s0.5-2.5,0.3-2.7S1765.9,70.5,1765.9,70.5z"/>
<path class="st0" d="M1860.5,148.6c0,0-2.7-1.6-3.1-1.4c-0.4,0.2,0.3,3.2,0.3,3.2s-2.3,1.4-2.2,1.9c0.2,0.5,3.4,1,3.4,1
	s0.6,3.9,1,3.8c0.4-0.2,1.6-4,1.6-4s3.8,0.7,3.9,0.1c0.2-0.5-2.7-2.3-2.7-2.3s0.7-3.3,0.4-3.5C1863,147.2,1860.5,148.6,1860.5,148.6
	z"/>
<circle class="st3" cx="1372.5" cy="220.7" r="2.7"/>
<circle class="st3" cx="1304" cy="311.3" r="2.7"/>
<circle class="st1" cx="1704.8" cy="19.1" r="2.9"/>
<circle class="st1" cx="1646.9" cy="22" r="2.1"/>
<circle class="st1" cx="1816.8" cy="193.1" r="2.9"/>
<circle class="st1" cx="1837.6" cy="101.5" r="2.9"/>
<circle class="st0" cx="1704.8" cy="151" r="2.5"/>
<circle class="st0" cx="1739.8" cy="224.1" r="2.5"/>
<circle class="st0" cx="1704.8" cy="197" r="2.5"/>
<circle class="st1" cx="1658" cy="254.1" r="2.5"/>
<path class="st2" d="M620,351.1c0,0-2-1.2-2.3-1.1c-0.3,0.1,0.3,2.4,0.3,2.4s-1.8,1-1.6,1.4c0.1,0.4,2.6,0.7,2.6,0.7s0.5,3,0.8,2.9
	c0.3-0.1,1.3-3.1,1.3-3.1s2.9,0.5,3,0.1c0.1-0.4-2-1.7-2-1.7s0.5-2.5,0.3-2.7C622,350,620,351.1,620,351.1z"/>
<path class="st1" d="M132.1,320.6c0,0-2.7-1.6-3.1-1.4c-0.4,0.2,0.3,3.2,0.3,3.2s-2.3,1.4-2.2,1.9c0.2,0.5,3.4,1,3.4,1
	s0.6,3.9,1,3.8c0.4-0.2,1.6-4,1.6-4s3.8,0.7,3.9,0.1c0.2-0.5-2.7-2.3-2.7-2.3s0.7-3.3,0.4-3.5S132.1,320.6,132.1,320.6z"/>
<circle class="st0" cx="261.2" cy="253.5" r="2.5"/>
<path class="st0" d="M535.5,339.3c0,0-2.7-1.6-3.1-1.4c-0.4,0.2,0.3,3.2,0.3,3.2s-2.3,1.4-2.2,1.9c0.2,0.5,3.4,1,3.4,1
	s0.6,3.9,1,3.8s1.6-4,1.6-4s3.8,0.7,3.9,0.1s-2.7-2.3-2.7-2.3s0.7-3.3,0.4-3.5C538,337.9,535.5,339.3,535.5,339.3z"/>
<circle class="st1" cx="736.4" cy="350" r="2.9"/>
<circle class="st1" cx="26.6" cy="303.5" r="2.9"/>
<circle class="st1" cx="115.9" cy="263.2" r="2.9"/>
<circle class="st0" cx="682.9" cy="361.4" r="2.5"/>
<path class="st2" d="M1802.2,257c0,0-2-1.2-2.3-1.1c-0.3,0.1,0.3,2.4,0.3,2.4s-1.8,1-1.6,1.4c0.1,0.4,2.6,0.7,2.6,0.7s0.5,3,0.8,2.9
	c0.3-0.1,1.3-3.1,1.3-3.1s2.9,0.5,3,0.1c0.1-0.4-2-1.7-2-1.7s0.5-2.5,0.3-2.7C1804.1,255.9,1802.2,257,1802.2,257z"/>
<circle class="st1" cx="1601.7" cy="276" r="2.9"/>
<circle class="st1" cx="1454.8" cy="272" r="2.5"/>
<path class="st2" d="M1750.4,317.9c0,0-2-1.2-2.3-1.1c-0.3,0.1,0.3,2.4,0.3,2.4s-1.8,1-1.6,1.4c0.1,0.4,2.6,0.7,2.6,0.7
	s0.5,3,0.8,2.9c0.3-0.1,1.3-3.1,1.3-3.1s2.9,0.5,3,0.1c0.1-0.4-2-1.7-2-1.7s0.5-2.5,0.3-2.7C1752.3,316.9,1750.4,317.9,1750.4,317.9
	z"/>
<path class="st2" d="M1720.7,276.6c0,0-2-1.2-2.3-1.1c-0.3,0.1,0.3,2.4,0.3,2.4s-1.8,1-1.6,1.4c0.1,0.4,2.6,0.7,2.6,0.7
	s0.5,3,0.8,2.9c0.3-0.1,1.3-3.1,1.3-3.1s2.9,0.5,3,0.1c0.1-0.4-2-1.7-2-1.7s0.5-2.5,0.3-2.7S1720.7,276.6,1720.7,276.6z"/>
<path class="st1" d="M1263.4,366.1c0,0-2.7-1.6-3.1-1.4c-0.4,0.2,0.3,3.2,0.3,3.2s-2.3,1.4-2.2,1.9c0.2,0.5,3.4,1,3.4,1
	s0.6,3.9,1,3.8s1.6-4,1.6-4s3.8,0.7,3.9,0.1c0.2-0.5-2.7-2.3-2.7-2.3s0.7-3.3,0.4-3.5C1266,364.7,1263.4,366.1,1263.4,366.1z"/>
<path class="st1" d="M1665.8,306.1c0,0-2.7-1.6-3.1-1.4c-0.4,0.2,0.3,3.2,0.3,3.2s-2.3,1.4-2.2,1.9c0.2,0.5,3.4,1,3.4,1
	s0.6,3.9,1,3.8s1.6-4,1.6-4s3.8,0.7,3.9,0.1c0.2-0.5-2.7-2.3-2.7-2.3s0.7-3.3,0.4-3.5C1668.4,304.7,1665.8,306.1,1665.8,306.1z"/>
<circle class="st1" cx="1880.1" cy="302.3" r="2.9"/>
<circle class="st1" cx="1870.6" cy="227.7" r="2.9"/>
<circle class="st1" cx="1157.9" cy="348.9" r="2.9"/>
<circle class="st1" cx="1247.3" cy="308.6" r="2.9"/>
<circle class="st0" cx="1813.2" cy="328.2" r="2.5"/>
<path class="st0" d="M1354.6,345.4c0,0-2.7-1.6-3.1-1.4c-0.4,0.2,0.3,3.2,0.3,3.2s-2.3,1.4-2.2,1.9c0.2,0.5,3.4,1,3.4,1
	s0.6,3.9,1,3.8c0.4-0.2,1.6-4,1.6-4s3.8,0.7,3.9,0.1c0.2-0.5-2.7-2.3-2.7-2.3s0.7-3.3,0.4-3.5
	C1357.1,343.9,1354.6,345.4,1354.6,345.4z"/>
<circle class="st0" cx="1494.1" cy="312.2" r="2.5"/>
<path class="st2" d="M365.4,380.8c0,0-2-1.2-2.3-1.1c-0.3,0.1,0.2,2.4,0.2,2.4s-1.7,1-1.6,1.4c0.1,0.4,2.5,0.7,2.5,0.7
	s0.5,2.9,0.8,2.8s1.2-3,1.2-3s2.8,0.5,2.9,0.1c0.1-0.4-2-1.7-2-1.7s0.5-2.4,0.3-2.6C367.3,379.7,365.4,380.8,365.4,380.8z"/>
<path class="st2" d="M647.4,446.3c0,0-2-1.2-2.3-1.1c-0.3,0.1,0.2,2.4,0.2,2.4s-1.7,1-1.6,1.4c0.1,0.4,2.5,0.7,2.5,0.7
	s0.5,2.9,0.8,2.8c0.3-0.1,1.2-3,1.2-3s2.8,0.5,2.9,0.1c0.1-0.4-2-1.7-2-1.7s0.5-2.4,0.3-2.6S647.4,446.3,647.4,446.3z"/>
<path class="st2" d="M120.1,359.3c0,0-2-1.2-2.3-1.1s0.2,2.4,0.2,2.4s-1.7,1-1.6,1.4c0.1,0.4,2.5,0.7,2.5,0.7s0.5,2.9,0.8,2.8
	s1.2-3,1.2-3s2.8,0.5,2.9,0.1s-2-1.7-2-1.7s0.5-2.4,0.3-2.6S120.1,359.3,120.1,359.3z"/>
<path class="st0" d="M173.5,415.6c0,0-2.6-1.5-3-1.4c-0.4,0.1,0.3,3.1,0.3,3.1s-2.3,1.3-2.1,1.8s3.3,1,3.3,1s0.6,3.8,1,3.7
	c0.4-0.2,1.6-3.9,1.6-3.9s3.7,0.6,3.8,0.1s-2.6-2.2-2.6-2.2s0.7-3.2,0.4-3.4C175.9,414.2,173.5,415.6,173.5,415.6z"/>
<circle class="st1" cx="37.2" cy="358.3" r="2.9"/>
<circle class="st1" cx="369.7" cy="354" r="2.9"/>
<circle class="st1" cx="422.2" cy="483" r="2.9"/>
<circle class="st1" cx="234.4" cy="292.8" r="2.9"/>
<circle class="st1" cx="196.3" cy="353.7" r="2.9"/>
<circle class="st0" cx="350.4" cy="450.6" r="2.4"/>
<circle class="st0" cx="330.4" cy="372.7" r="2.4"/>
<circle class="st0" cx="81.3" cy="326.5" r="2.4"/>
<circle class="st0" cx="42.1" cy="412.9" r="2.4"/>
<circle class="st0" cx="309.5" cy="421.6" r="2.4"/>
<circle class="st0" cx="271.3" cy="462.7" r="2.4"/>
<circle class="st0" cx="260.3" cy="372.7" r="2.4"/>
<path class="st0" d="M572.4,450.3c0,0-2.6-1.5-3-1.4s0.3,3.1,0.3,3.1s-2.3,1.3-2.1,1.8s3.3,1,3.3,1s0.6,3.8,1,3.7s1.6-3.9,1.6-3.9
	s3.7,0.6,3.8,0.1s-2.6-2.2-2.6-2.2s0.7-3.2,0.4-3.4C574.9,448.9,572.4,450.3,572.4,450.3z"/>
<circle class="st3" cx="440.5" cy="326.5" r="2.7"/>
<circle class="st3" cx="27.4" cy="330" r="2.7"/>
<circle class="st1" cx="595.2" cy="388.4" r="2.9"/>
<circle class="st0" cx="520.4" cy="418.5" r="2.4"/>
<circle class="st0" cx="486" cy="352.8" r="2.4"/>
<circle class="st0" cx="440.5" cy="408.3" r="2.4"/>
<circle class="st0" cx="708.5" cy="456.3" r="2.4"/>
<circle class="st0" cx="659.3" cy="407.4" r="2.4"/>
<circle class="st1" cx="1184.5" cy="394.4" r="2.9"/>
<path class="st1" d="M1137.1,452.9c0,0-2.6-1.5-3-1.4s0.3,3.1,0.3,3.1s-2.3,1.3-2.1,1.8s3.3,1,3.3,1s0.6,3.8,1,3.7s1.6-3.9,1.6-3.9
	s3.7,0.6,3.8,0.1c0.2-0.5-2.6-2.2-2.6-2.2s0.7-3.2,0.4-3.4C1139.5,451.5,1137.1,452.9,1137.1,452.9z"/>
<path class="st0" d="M1360.9,440.7c0,0-2.6-1.5-3-1.4s0.3,3.1,0.3,3.1s-2.3,1.3-2.1,1.8s3.3,1,3.3,1s0.6,3.8,1,3.7s1.6-3.9,1.6-3.9
	s3.7,0.6,3.8,0.1c0.2-0.5-2.6-2.2-2.6-2.2s0.7-3.2,0.4-3.4S1360.9,440.7,1360.9,440.7z"/>
<circle class="st1" cx="1556.6" cy="339.8" r="2.9"/>
<circle class="st1" cx="1383.7" cy="378.8" r="2.9"/>
<circle class="st0" cx="1517.4" cy="358.5" r="2.4"/>
<circle class="st0" cx="1308.9" cy="409" r="2.4"/>
<circle class="st0" cx="1275" cy="382.6" r="2.4"/>
<circle class="st0" cx="1496.5" cy="407.4" r="2.4"/>
<circle class="st0" cx="1447.3" cy="358.5" r="2.4"/>
<path class="st3" d="M1729.4,359.7c0,0-2.6-1.5-3-1.4c-0.4,0.1,0.3,3.1,0.3,3.1s-2.3,1.3-2.1,1.8c0.2,0.5,3.3,1,3.3,1s0.6,3.8,1,3.7
	s1.6-3.9,1.6-3.9s3.7,0.6,3.8,0.1c0.2-0.5-2.6-2.2-2.6-2.2s0.7-3.2,0.4-3.4S1729.4,359.7,1729.4,359.7z"/>
<path class="st3" d="M1451.7,63.2c0,0-2.6-1.5-3-1.4s0.3,3.1,0.3,3.1s-2.3,1.3-2.1,1.8c0.2,0.5,3.3,1,3.3,1s0.6,3.8,1,3.7
	s1.6-3.9,1.6-3.9s3.7,0.6,3.8,0.1c0.2-0.5-2.6-2.2-2.6-2.2s0.7-3.2,0.4-3.4C1454.1,61.8,1451.7,63.2,1451.7,63.2z"/>
<circle class="st3" cx="1328.1" cy="378.8" r="2.7"/>
<circle class="st3" cx="1261.5" cy="466.9" r="2.7"/>
<circle class="st1" cx="1802.3" cy="394.3" r="2.9"/>
<circle class="st0" cx="1684.8" cy="381.1" r="2.4"/>
<circle class="st0" cx="1650.8" cy="354.7" r="2.4"/>
<circle class="st1" cx="1605.4" cy="343.9" r="2.4"/>
<path class="st2" d="M597.1,505.5c0,0-2-1.2-2.3-1.1c-0.3,0.1,0.2,2.4,0.2,2.4s-1.7,1-1.6,1.4c0.1,0.4,2.5,0.7,2.5,0.7
	s0.5,2.9,0.8,2.8c0.3-0.1,1.2-3,1.2-3s2.8,0.5,2.9,0.1c0.1-0.4-2-1.7-2-1.7s0.5-2.4,0.3-2.6C599,504.5,597.1,505.5,597.1,505.5z"/>
<path class="st1" d="M123.1,474.8c0,0-2.6-1.5-3-1.4c-0.4,0.1,0.3,3.1,0.3,3.1s-2.3,1.3-2.1,1.8c0.2,0.5,3.3,1,3.3,1s0.6,3.8,1,3.7
	s1.6-3.9,1.6-3.9s3.7,0.6,3.8,0.1s-2.6-2.2-2.6-2.2s0.7-3.2,0.4-3.4S123.1,474.8,123.1,474.8z"/>
<circle class="st0" cx="248.5" cy="409.6" r="2.4"/>
<path class="st0" d="M515,494.1c0,0-2.6-1.5-3-1.4c-0.4,0.1,0.3,3.1,0.3,3.1s-2.3,1.3-2.1,1.8c0.2,0.5,3.3,1,3.3,1s0.6,3.8,1,3.7
	s1.6-3.9,1.6-3.9s3.7,0.6,3.8,0.1c0.2-0.5-2.6-2.2-2.6-2.2s0.7-3.2,0.4-3.4C517.4,492.7,515,494.1,515,494.1z"/>
<path class="st0" d="M345.4,531.8c0,0-2.6-1.5-3-1.4s0.3,3.1,0.3,3.1s-2.3,1.3-2.1,1.8c0.2,0.5,3.3,1,3.3,1s0.6,3.8,1,3.7
	s1.6-3.9,1.6-3.9s3.7,0.6,3.8,0.1s-2.6-2.2-2.6-2.2s0.7-3.2,0.4-3.4C347.9,530.4,345.4,531.8,345.4,531.8z"/>
<circle class="st1" cx="710.2" cy="504.5" r="2.9"/>
<circle class="st1" cx="20.6" cy="458.1" r="2.9"/>
<circle class="st1" cx="107.4" cy="419" r="2.9"/>
<circle class="st0" cx="658.2" cy="515.5" r="2.4"/>
<path class="st2" d="M817.7,453.1c0,0-2-1.2-2.3-1.1s0.2,2.4,0.2,2.4s-1.7,1-1.6,1.4c0.1,0.4,2.5,0.7,2.5,0.7s0.5,2.9,0.8,2.8
	c0.3-0.1,1.2-3,1.2-3s2.8,0.5,2.9,0.1s-2-1.7-2-1.7s0.5-2.4,0.3-2.6C819.6,452,817.7,453.1,817.7,453.1z"/>
<path class="st0" d="M742.7,457c0,0-2.6-1.5-3-1.4c-0.4,0.1,0.3,3.1,0.3,3.1s-2.3,1.3-2.1,1.8c0.2,0.5,3.3,1,3.3,1s0.6,3.8,1,3.7
	s1.6-3.9,1.6-3.9s3.7,0.6,3.8,0.1s-2.6-2.2-2.6-2.2s0.7-3.2,0.4-3.4C745.2,455.6,742.7,457,742.7,457z"/>
<circle class="st1" cx="765.5" cy="395.1" r="2.9"/>
<circle class="st0" cx="829.6" cy="414.2" r="2.4"/>
<circle class="st0" cx="747.7" cy="394.4" r="2.4"/>
<path class="st2" d="M1017.9,290.2c0,0-2-1.2-2.3-1.1c-0.3,0.1,0.3,2.4,0.3,2.4s-1.8,1-1.6,1.4c0.1,0.4,2.6,0.7,2.6,0.7
	s0.5,3,0.8,2.9s1.3-3.1,1.3-3.1s2.9,0.5,3,0.1c0.1-0.4-2-1.7-2-1.7s0.5-2.5,0.3-2.7S1017.9,290.2,1017.9,290.2z"/>
<path class="st1" d="M1023.6,189.8c0,0-2.7-1.6-3.1-1.4c-0.4,0.2,0.3,3.2,0.3,3.2s-2.3,1.4-2.2,1.9s3.4,1,3.4,1s0.6,3.9,1,3.8
	c0.4-0.2,1.6-4,1.6-4s3.8,0.7,3.9,0.1c0.2-0.5-2.7-2.3-2.7-2.3s0.7-3.3,0.4-3.5C1026.2,188.4,1023.6,189.8,1023.6,189.8z"/>
<path class="st1" d="M928.1,189.8c0,0-2.7-1.6-3.1-1.4c-0.4,0.2,0.3,3.2,0.3,3.2s-2.3,1.4-2.2,1.9s3.4,1,3.4,1s0.6,3.9,1,3.8
	c0.4-0.2,1.6-4,1.6-4s3.8,0.7,3.9,0.1c0.2-0.5-2.7-2.3-2.7-2.3s0.7-3.3,0.4-3.5C930.6,188.4,928.1,189.8,928.1,189.8z"/>
<path class="st0" d="M867.5,146.2c0,0-2.7-1.6-3.1-1.4c-0.4,0.2,0.3,3.2,0.3,3.2s-2.3,1.4-2.2,1.9s3.4,1,3.4,1s0.6,3.9,1,3.8
	s1.6-4,1.6-4s3.8,0.7,3.9,0.1s-2.7-2.3-2.7-2.3s0.7-3.3,0.4-3.5S867.5,146.2,867.5,146.2z"/>
<path class="st0" d="M940.6,294.3c0,0-2.7-1.6-3.1-1.4c-0.4,0.2,0.3,3.2,0.3,3.2s-2.3,1.4-2.2,1.9c0.2,0.5,3.4,1,3.4,1
	s0.6,3.9,1,3.8c0.4-0.2,1.6-4,1.6-4s3.8,0.7,3.9,0.1c0.2-0.5-2.7-2.3-2.7-2.3s0.7-3.3,0.4-3.5C943.2,292.8,940.6,294.3,940.6,294.3z
	"/>
<path class="st0" d="M988.8,191c0,0-2.7-1.6-3.1-1.4c-0.4,0.2,0.3,3.2,0.3,3.2s-2.3,1.4-2.2,1.9c0.2,0.5,3.4,1,3.4,1s0.6,3.9,1,3.8
	s1.6-4,1.6-4s3.8,0.7,3.9,0.1c0.2-0.5-2.7-2.3-2.7-2.3s0.7-3.3,0.4-3.5C991.4,189.5,988.8,191,988.8,191z"/>
<circle class="st3" cx="969.3" cy="161.3" r="2.7"/>
<circle class="st1" cx="1134.3" cy="289.1" r="2.9"/>
<circle class="st1" cx="964.1" cy="230.5" r="2.9"/>
<circle class="st0" cx="851.7" cy="149.1" r="2.5"/>
<circle class="st0" cx="887.1" cy="261.6" r="2.5"/>
<circle class="st0" cx="851.7" cy="220.7" r="2.5"/>
<circle class="st0" cx="1080.7" cy="300.5" r="2.5"/>
<circle class="st0" cx="1030.1" cy="250.1" r="2.5"/>
<path class="st1" d="M1074.8,163.1c0,0-2.7-1.6-3.1-1.4c-0.4,0.2,0.3,3.2,0.3,3.2s-2.3,1.4-2.2,1.9s3.4,1,3.4,1s0.6,3.9,1,3.8
	s1.6-4,1.6-4s3.8,0.7,3.9,0.1s-2.7-2.3-2.7-2.3s0.7-3.3,0.4-3.5S1074.8,163.1,1074.8,163.1z"/>
<path class="st2" d="M966,351.1c0,0-2-1.2-2.3-1.1c-0.3,0.1,0.3,2.4,0.3,2.4s-1.8,1-1.6,1.4c0.1,0.4,2.6,0.7,2.6,0.7s0.5,3,0.8,2.9
	c0.3-0.1,1.3-3.1,1.3-3.1s2.9,0.5,3,0.1c0.1-0.4-2-1.7-2-1.7s0.5-2.5,0.3-2.7C968,350,966,351.1,966,351.1z"/>
<path class="st0" d="M881.5,339.3c0,0-2.7-1.6-3.1-1.4c-0.4,0.2,0.3,3.2,0.3,3.2s-2.3,1.4-2.2,1.9c0.2,0.5,3.4,1,3.4,1
	s0.6,3.9,1,3.8s1.6-4,1.6-4s3.8,0.7,3.9,0.1s-2.7-2.3-2.7-2.3s0.7-3.3,0.4-3.5C884,337.9,881.5,339.3,881.5,339.3z"/>
<circle class="st1" cx="1082.4" cy="350" r="2.9"/>
<circle class="st0" cx="1028.9" cy="361.4" r="2.5"/>
<circle class="st1" cx="941.2" cy="388.4" r="2.9"/>
<circle class="st0" cx="866.4" cy="418.5" r="2.4"/>
<circle class="st0" cx="832" cy="352.8" r="2.4"/>
<circle class="st0" cx="1005.3" cy="407.4" r="2.4"/>
<circle class="st1" cx="1111.5" cy="395.1" r="2.9"/>
<circle class="st0" cx="1093.7" cy="394.4" r="2.4"/>
<path class="st2" d="M767.4,512.3c0,0-2-1.2-2.3-1.1s0.2,2.4,0.2,2.4s-1.7,1-1.6,1.4c0.1,0.4,2.5,0.7,2.5,0.7s0.5,2.9,0.8,2.8
	c0.3-0.1,1.2-3,1.2-3s2.8,0.5,2.9,0.1s-2-1.7-2-1.7s0.5-2.4,0.3-2.6C769.2,511.2,767.4,512.3,767.4,512.3z"/>
<circle class="st1" cx="880.4" cy="511.2" r="2.9"/>
<circle class="st0" cx="836.5" cy="535.2" r="2.4"/>
<path class="st2" d="M1745.4,413c0,0-2-1.2-2.3-1.1c-0.3,0.1,0.2,2.4,0.2,2.4s-1.7,1-1.6,1.4c0.1,0.4,2.5,0.7,2.5,0.7
	s0.5,2.9,0.8,2.8c0.3-0.1,1.2-3,1.2-3s2.8,0.5,2.9,0.1c0.1-0.4-2-1.7-2-1.7s0.5-2.4,0.3-2.6S1745.4,413,1745.4,413z"/>
<circle class="st1" cx="1503.4" cy="457" r="2.9"/>
<circle class="st1" cx="1408.5" cy="466.9" r="2.4"/>
<path class="st2" d="M1695,472.2c0,0-2-1.2-2.3-1.1c-0.3,0.1,0.2,2.4,0.2,2.4s-1.7,1-1.6,1.4c0.1,0.4,2.5,0.7,2.5,0.7
	s0.5,2.9,0.8,2.8c0.3-0.1,1.2-3,1.2-3s2.8,0.5,2.9,0.1c0.1-0.4-2-1.7-2-1.7s0.5-2.4,0.3-2.6C1696.9,471.1,1695,472.2,1695,472.2z"/>
<path class="st2" d="M1912,542.6c0,0-2-1.2-2.3-1.1c-0.3,0.1,0.2,2.4,0.2,2.4s-1.7,1-1.6,1.4c0.1,0.4,2.5,0.7,2.5,0.7
	s0.5,2.9,0.8,2.8c0.3-0.1,1.2-3,1.2-3s2.8,0.5,2.9,0.1s-2-1.7-2-1.7s0.5-2.4,0.3-2.6S1912,542.6,1912,542.6z"/>
<path class="st1" d="M1222.1,520.1c0,0-2.6-1.5-3-1.4c-0.4,0.1,0.3,3.1,0.3,3.1s-2.3,1.3-2.1,1.8s3.3,1,3.3,1s0.6,3.8,1,3.7
	c0.4-0.2,1.6-3.9,1.6-3.9s3.7,0.6,3.8,0.1c0.2-0.5-2.6-2.2-2.6-2.2s0.7-3.2,0.4-3.4S1222.1,520.1,1222.1,520.1z"/>
<path class="st1" d="M1612.9,460.7c0,0-2.6-1.5-3-1.4c-0.4,0.1,0.3,3.1,0.3,3.1s-2.3,1.3-2.1,1.8c0.2,0.5,3.3,1,3.3,1s0.6,3.8,1,3.7
	s1.6-3.9,1.6-3.9s3.7,0.6,3.8,0.1c0.2-0.5-2.6-2.2-2.6-2.2s0.7-3.2,0.4-3.4C1615.4,459.3,1612.9,460.7,1612.9,460.7z"/>
<path class="st1" d="M1481.5,520.1c0,0-2.6-1.5-3-1.4s0.3,3.1,0.3,3.1s-2.3,1.3-2.1,1.8s3.3,1,3.3,1s0.6,3.8,1,3.7s1.6-3.9,1.6-3.9
	s3.7,0.6,3.8,0.1c0.2-0.5-2.6-2.2-2.6-2.2s0.7-3.2,0.4-3.4S1481.5,520.1,1481.5,520.1z"/>
<circle class="st1" cx="1808.1" cy="477.9" r="2.9"/>
<circle class="st1" cx="1623" cy="518.7" r="2.9"/>
<circle class="st1" cx="1152.9" cy="514.9" r="2.9"/>
<circle class="st1" cx="1206.4" cy="464.2" r="2.9"/>
<circle class="st0" cx="1756.1" cy="482.2" r="2.4"/>
<path class="st2" d="M1840.8,279.8c0,0-2-1.2-2.3-1.1c-0.3,0.1,0.3,2.4,0.3,2.4s-1.8,1-1.6,1.4c0.1,0.4,2.6,0.7,2.6,0.7
	s0.5,3,0.8,2.9c0.3-0.1,1.3-3.1,1.3-3.1s2.9,0.5,3,0.1c0.1-0.4-2-1.7-2-1.7s0.5-2.5,0.3-2.7C1842.8,278.7,1840.8,279.8,1840.8,279.8
	z"/>
<circle class="st1" cx="1855" cy="385" r="2.9"/>
<circle class="st1" cx="1886.9" cy="468.9" r="2.9"/>
<path class="st2" d="M1840.8,447c0,0-2-1.2-2.3-1.1s0.2,2.4,0.2,2.4s-1.7,1-1.6,1.4c0.1,0.4,2.5,0.7,2.5,0.7s0.5,2.9,0.8,2.8
	s1.2-3,1.2-3s2.8,0.5,2.9,0.1c0.1-0.4-2-1.7-2-1.7s0.5-2.4,0.3-2.6C1842.7,446,1840.8,447,1840.8,447z"/>
<path class="st0" d="M1310.6,499.9c0,0-2.6-1.5-3-1.4s0.3,3.1,0.3,3.1s-2.3,1.3-2.1,1.8s3.3,1,3.3,1s0.6,3.8,1,3.7s1.6-3.9,1.6-3.9
	s3.7,0.6,3.8,0.1c0.2-0.5-2.6-2.2-2.6-2.2s0.7-3.2,0.4-3.4S1310.6,499.9,1310.6,499.9z"/>
<path class="st1" d="M835.8,471.4c0,0-2.6-1.5-3-1.4c-0.4,0.1,0.3,3.1,0.3,3.1s-2.3,1.3-2.1,1.8c0.2,0.5,3.3,1,3.3,1s0.6,3.8,1,3.7
	c0.4-0.2,1.6-3.9,1.6-3.9s3.7,0.6,3.8,0.1s-2.6-2.2-2.6-2.2s0.7-3.2,0.4-3.4C838.3,470,835.8,471.4,835.8,471.4z"/>
<path class="st0" d="M1157.6,440.7c0,0-2.6-1.5-3-1.4c-0.4,0.1,0.3,3.1,0.3,3.1s-2.3,1.3-2.1,1.8s3.3,1,3.3,1s0.6,3.8,1,3.7
	s1.6-3.9,1.6-3.9s3.7,0.6,3.8,0.1c0.2-0.5-2.6-2.2-2.6-2.2s0.7-3.2,0.4-3.4S1157.6,440.7,1157.6,440.7z"/>
<path class="st0" d="M1222.1,366.2c0,0-2.6-1.5-3-1.4c-0.4,0.1,0.3,3.1,0.3,3.1s-2.3,1.3-2.1,1.8s3.3,1,3.3,1s0.6,3.8,1,3.7
	c0.4-0.2,1.6-3.9,1.6-3.9s3.7,0.6,3.8,0.1c0.2-0.5-2.6-2.2-2.6-2.2s0.7-3.2,0.4-3.4S1222.1,366.2,1222.1,366.2z"/>
<circle class="st3" cx="1192.2" cy="490.3" r="2.7"/>
<circle class="st1" cx="1061.1" cy="497.5" r="2.4"/>
<circle class="st1" cx="805.5" cy="497.5" r="2.9"/>
<circle class="st0" cx="1446.1" cy="466.6" r="2.4"/>
<circle class="st0" cx="1775.8" cy="101.5" r="2.5"/>
<circle class="st0" cx="1872.7" cy="83.3" r="2.5"/>
<circle class="st0" cx="853.3" cy="526.2" r="2.4"/>
<circle class="st1" cx="723.9" cy="544.6" r="2.9"/>
<circle class="st0" cx="193.5" cy="511.2" r="2.4"/>
<circle class="st1" cx="497.8" cy="536.1" r="2.9"/>
<circle class="st1" cx="107.4" cy="544.6" r="2.9"/>
</svg>
