<?xml version="1.0" encoding="utf-8"?>
<!-- Generator: Adobe Illustrator 23.0.1, SVG Export Plug-In . SVG Version: 6.00 Build 0)  -->
<svg version="1.1" id="Layer_1" xmlns="http://www.w3.org/2000/svg" xmlns:xlink="http://www.w3.org/1999/xlink" x="0px" y="0px"
	 viewBox="0 0 503.8 474.6" style="enable-background:new 0 0 503.8 474.6;" xml:space="preserve">
<style type="text/css">
	.st0{fill:#EEEDED;}
	.st1{filter:url(#Adobe_OpacityMaskFilter);}
	.st2{mask:url(#SVGID_1_);}
	.st3{fill:#E84E93;}
</style>
<g>
	<path class="st0" d="M496.9,90.4c9.1,0,9.1-14.1,0-14.1C487.9,76.3,487.9,90.4,496.9,90.4z"/>
	<path class="st0" d="M157.3,165.7c-2.7-4.9-9.9-3.9-14.1-1.7c-17.6-24.7-49.3-36.2-78.9-28c-29.6,8.2-50.8,34.4-53.2,64.6
		c-4.7,0.3-11.4,3.1-11.2,8.7c0.5,13.1,4.1,26,10.4,37.5c2.8,5,10.1,3.9,14.1,1.7c16.1,22.6,44.7,34.3,72,29.5l54.3,188.5
		c2.4,8.6,16,5,13.6-3.8l-54.3-188.5c26.1-10.1,44.3-34.5,46.5-62.4c4.7-0.3,11.4-3.1,11.2-8.7C167.2,190.1,163.6,177.2,157.3,165.7
		L157.3,165.7z M68.1,149.6c22.2-6.2,45.8,1.4,60.4,18.4L25.9,196.5C29.6,174.4,46,155.7,68.1,149.6z M99.6,262.9
		c-22.2,6.2-45.8-1.4-60.4-18.4l10.1-2.8c8.8-2.4,5-16-3.8-13.6l-25.2,7c-1.5-3.3-2.7-6.7-3.7-10.1c-1-3.5-1.7-7-2.1-10.6
		l132.9-36.9c1.5,3.3,2.7,6.7,3.7,10.1c1,3.5,1.7,7,2.1,10.6L82,217.9c-8.8,2.4-5,16,3.8,13.6l56.1-15.6
		C138.1,238.1,121.8,256.7,99.6,262.9L99.6,262.9z"/>
	<path class="st0" d="M419.6,285.1c19.3,0,38.8-6.6,54.6-20.1c29.6-25.3,38.1-67.2,20.5-101.9c-4.1-8.1-16.7-1.8-12.6,6.4
		c14.6,28.9,7.6,63.8-17.1,84.8c-17.7,15.1-42.3,20.4-64.7,14.1c-22.8-8.3-34.8-30.9-31.3-59.2c3.3-26.7,26.2-48.4,53.8-46.2
		c20.8,1.6,36.4,20,35.4,41.7c-0.7,16.8-15,34-32.9,32.9c-15.2-1-28.5-14.4-25-30.3c2-8.9,10.4-15.4,19.3-14.7
		c11.7,0.9,15,20.2,1.5,18.1c-9-1.4-11.2,12.5-2.2,13.9c10.9,1.7,23.1-3.8,25.5-17.8c2.4-14.3-9.9-27.2-23.7-28.3
		c-16-1.3-30.7,9.8-34.2,25.8c-5.4,24.5,14,45.8,37.9,47.4c25.8,1.7,46.9-21.6,48-46.4c1.3-29.4-20-54.2-48.4-56.4
		c-34.9-2.8-64.7,24.5-68.9,58.6c-0.9,7.1-0.9,13.9-0.2,20.5c-11.4-27.3-4.5-60.1,19.2-80.3c23.9-20.4,58.8-22.4,84.8-4.8
		c7.6,5.1,15.5-6.6,7.9-11.7c-31.2-21.1-73.1-18.8-101.8,5.7c-35.3,30.1-39.5,83.4-9.4,118.7c9.6,11.3,21.6,19.3,34.5,24.2
		l-54.2,186c-2.4,8.5,11.1,12.7,13.6,3.8l54.2-186.1C408.9,284.6,414.3,285.1,419.6,285.1L419.6,285.1z"/>
	<path class="st0" d="M311.3,17.4c0-9.6-7.8-17.4-17.4-17.4H208c-0.5,0-1,0-1.4,0.1c-12,2.5-20.7,13.2-20.7,25.4
		c0,7.4,3.1,14.4,8.7,19.4c-5.4,4.8-8.7,11.8-8.7,19.3c0,7.4,3.1,14.4,8.7,19.4c-5.4,4.8-8.7,11.8-8.7,19.3c0,7.4,3.1,14.4,8.7,19.4
		c-5.4,4.8-8.7,11.8-8.7,19.3c0,7.4,3.1,14.4,8.7,19.4c-5.4,4.8-8.7,11.8-8.7,19.3c0,7.4,3.1,14.4,8.7,19.4
		c-5.4,4.8-8.7,11.8-8.7,19.3c0,7.4,3.1,14.4,8.7,19.4c-5.4,4.8-8.7,11.8-8.7,19.3c0,7.4,3.1,14.4,8.7,19.4
		c-5.4,4.8-8.7,11.8-8.7,19.3c0,6.7,2.5,13,7,17.7c-4.3,3.2-7,8.3-7,13.9c0,9.6,7.8,17.4,17.4,17.4h38.3v122.2
		c0,9.1,14.1,9.1,14.1,0V345.5h33.5c0.5,0,1,0,1.4-0.1c12-2.5,20.7-13.2,20.7-25.4c0-7.4-3.1-14.4-8.6-19.3
		c5.3-4.8,8.6-11.8,8.6-19.3c0-7.4-3.1-14.4-8.7-19.4c5.4-4.8,8.7-11.8,8.7-19.3c0-7.4-3.1-14.4-8.7-19.4c5.4-4.8,8.7-11.8,8.7-19.3
		c0-7.4-3.1-14.4-8.7-19.4c5.4-4.8,8.7-11.8,8.7-19.3c0-7.4-3.1-14.4-8.7-19.4c5.4-4.8,8.7-11.8,8.7-19.3c0-7.4-3.1-14.4-8.7-19.4
		c5.4-4.8,8.7-11.8,8.7-19.3c0-7.4-3.1-14.4-8.7-19.4c5.4-4.8,8.7-11.8,8.7-19.3c0-6.7-2.5-13-7-17.8
		C308.6,28.1,311.3,23,311.3,17.4L311.3,17.4z M287.7,292.9L214.2,308c-14.8,3.1-19.7-20.2-4.8-23.2l73.5-15.2
		C297.1,266.7,303.5,289.6,287.7,292.9z M287.7,254.2c-2.5,0.5-72.7,15-72.7,15c-16.2,3.2-22.5-19.6-5.6-23.1l73.5-15.2
		C297.8,227.9,302.6,251.1,287.7,254.2z M287.7,215.5c-2.5,0.5-72.7,15-72.7,15c-15.6,3.3-20.1-19.1-5.6-23.1l73.5-15.2
		C297.7,189.2,302.6,212.4,287.7,215.5z M287.7,176.8c-2.5,0.5-72.7,15-72.7,15c-16.3,3.4-22.5-19.6-5.6-23.1l73.5-15.2
		C297.8,150.5,302.6,173.7,287.7,176.8z M287.7,138.1c-2.5,0.5-72.7,15-72.7,15c-16.2,4-20.5-19.1-5.6-23.1l73.5-15.2
		C297.7,111.8,302.6,135,287.7,138.1L287.7,138.1z M287.7,99.4l-72.7,15c-16.2,3.4-22.5-19.6-5.6-23.1l73.5-15.2
		C297.8,73.1,302.6,96.3,287.7,99.4z M214.2,75.9c-14.8,3.1-19.7-20.2-4.7-23.2l72.7-15c15.4-3.3,19.1,19.2,5.5,23.1l-72.7,15
		C214.7,75.8,214.5,75.8,214.2,75.9L214.2,75.9z M208.8,14.1h85.1c4.2,2,4.4,4.2,0.7,6.5l-80.3,16.6
		C199.7,40.2,194.4,17.9,208.8,14.1z M288.3,331.4h-85.1c-4.2-2-4.4-4.2-0.7-6.5l80.1-16.5C296.8,306,303.7,327.3,288.3,331.4z"/>
	<path class="st0" d="M25.9,332.3c-9.1,0-9.1,14.1,0,14.1C34.9,346.4,35,332.3,25.9,332.3z"/>
	<path class="st0" d="M126.3,107.2c9.1,0,9.1-14.1,0-14.1C117.2,93.1,117.2,107.2,126.3,107.2z"/>
	<path class="st0" d="M6.8,87.4c9.1,0,9.1-14.1,0-14.1C-2.3,73.2-2.3,87.4,6.8,87.4z"/>
	<path class="st0" d="M70.6,380c-9.1,0-9.1,14.1,0,14.1C79.6,394.1,79.7,380,70.6,380z"/>
	<path class="st0" d="M475.6,342.4c-9.1,0-9.1,14.1,0,14.1C484.7,356.5,484.7,342.4,475.6,342.4z"/>
	<path class="st0" d="M368,81.8c9.1,0,9.1-14.1,0-14.1C359,67.7,359,81.8,368,81.8z"/>
	<path class="st0" d="M426.4,400c-9.1,0-9.1,14.1,0,14.1C435.5,414.2,435.5,400,426.4,400z"/>
	<path class="st0" d="M311.3,368.9c-9.1,0-9.1,14.1,0,14.1C320.4,383,320.4,368.9,311.3,368.9z"/>
	<g>
		<defs>
			<filter id="Adobe_OpacityMaskFilter" filterUnits="userSpaceOnUse" x="68.9" y="110.9" width="359.9" height="253">
				<feFlood  style="flood-color:white;flood-opacity:1" result="back"/>
				<feBlend  in="SourceGraphic" in2="back" mode="normal"/>
			</filter>
		</defs>
		<mask maskUnits="userSpaceOnUse" x="68.9" y="110.9" width="359.9" height="253" id="SVGID_1_">
			<g class="st1">
				
					<image style="overflow:visible;" width="1422" height="1005" xlink:href="96195A54992D4B2F.jpg"  transform="matrix(0.2563 0 0 0.2563 66.6528 108.5505)">
				</image>
			</g>
		</mask>
		<g class="st2">
			<path class="st3" d="M101.5,132.5c66.8-4.9,208.9-16.3,274.5-21.5c19.1-1.5,36,12.6,37.8,31.7l14.9,155.3
				c1.8,19.3-12.2,36.4-31.5,38.3l-273.5,27.4c-19.3,1.9-36.5-12.2-38.5-31.5L69.1,171.1C67.1,151.4,81.8,134,101.5,132.5z"/>
		</g>
	</g>
</g>
</svg>
