<?xml version="1.0" encoding="utf-8"?>
<!-- Generator: Adobe Illustrator 23.0.1, SVG Export Plug-In . SVG Version: 6.00 Build 0)  -->
<svg version="1.1" id="Layer_1" xmlns="http://www.w3.org/2000/svg" xmlns:xlink="http://www.w3.org/1999/xlink" x="0px" y="0px"
	 viewBox="0 0 33.6 47.2" style="enable-background:new 0 0 33.6 47.2;" xml:space="preserve">
<style type="text/css">
	.st0{fill:#6F6F6E;}
</style>
<path class="st0" d="M7,43.3h3.9v3.9H7V43.3z M14.8,43.3h3.9v3.9h-3.9V43.3z M22.7,43.3h3.9v3.9h-3.9V43.3z M24.7,0L8.9,0
	C6.8,0,5,1.8,5,3.9v31.5c0,2.2,1.8,3.9,3.9,3.9h15.7c2.2,0,3.9-1.8,3.9-3.9V3.9C28.6,1.8,26.8,0,24.7,0z M24.7,35.4H8.9v-2h15.7
	V35.4z M24.7,29.5H8.9V9.8h15.7V29.5z M24.7,5.9H8.9v-2h15.7V5.9z"/>
</svg>
