<?xml version="1.0" encoding="utf-8"?>
<!-- Generator: Adobe Illustrator 23.0.1, SVG Export Plug-In . SVG Version: 6.00 Build 0)  -->
<svg version="1.1" id="Layer_1" xmlns="http://www.w3.org/2000/svg" xmlns:xlink="http://www.w3.org/1999/xlink" x="0px" y="0px"
	 viewBox="0 0 33.6 47.2" style="enable-background:new 0 0 33.6 47.2;" xml:space="preserve">
<style type="text/css">
	.st0{fill:#6F6F6E;}
</style>
<path class="st0" d="M16.7,8.2c-8.1,0-14.6,6.5-14.6,14.6s6.5,14.6,14.6,14.6c8.1,0,14.6-6.5,14.6-14.6S24.8,8.2,16.7,8.2z M26.8,17
	h-4.3c-0.5-1.8-1.1-3.6-2-5.2C23.2,12.7,25.4,14.5,26.8,17z M16.7,11.2c1.2,1.8,2.2,3.7,2.8,5.8h-5.6C14.6,14.9,15.5,12.9,16.7,11.2
	z M5.4,25.7C5.2,24.8,5,23.8,5,22.8c0-1,0.1-2,0.4-2.9h4.9c-0.1,1-0.2,1.9-0.2,2.9c0,1,0.1,2,0.2,2.9H5.4z M6.6,28.6h4.3
	c0.5,1.8,1.1,3.6,2,5.2C10.2,32.9,8,31.1,6.6,28.6z M10.9,17H6.6c1.4-2.4,3.6-4.3,6.3-5.2C12.1,13.4,11.4,15.1,10.9,17z M16.7,34.4
	c-1.2-1.8-2.2-3.7-2.8-5.8h5.6C18.9,30.7,17.9,32.7,16.7,34.4z M20.1,25.7h-6.8c-0.1-1-0.2-1.9-0.2-2.9c0-1,0.1-2,0.2-2.9h6.8
	c0.1,0.9,0.2,1.9,0.2,2.9C20.4,23.8,20.3,24.8,20.1,25.7z M20.5,33.8c0.9-1.6,1.5-3.4,2-5.2h4.3C25.4,31.1,23.2,32.9,20.5,33.8z
	 M23.1,25.7c0.1-1,0.2-1.9,0.2-2.9c0-1-0.1-2-0.2-2.9H28c0.2,0.9,0.4,1.9,0.4,2.9c0,1-0.1,2-0.4,2.9H23.1z"/>
</svg>
